<mxfile host="app.diagrams.net" modified="2023-03-22T19:01:17.650Z" agent="5.0 (Windows NT 10.0; Win64; x64) AppleWebKit/537.36 (KHTML, like Gecko) Chrome/111.0.0.0 Safari/537.36" etag="VqQ83lwFD0N5BMsauLtJ" version="21.0.6" type="github">
  <diagram name="Сторінка-1" id="5EotzzUDCrl9Juo6ess_">
    <mxGraphModel dx="1909" dy="1056" grid="1" gridSize="10" guides="1" tooltips="1" connect="1" arrows="1" fold="1" page="1" pageScale="1" pageWidth="827" pageHeight="1169" math="0" shadow="0">
      <root>
        <mxCell id="0" />
        <mxCell id="1" parent="0" />
        <mxCell id="lBbLSLFAb5su9wy5Ds7A-3" value="" style="ellipse;whiteSpace=wrap;html=1;aspect=fixed;" vertex="1" parent="1">
          <mxGeometry x="129" y="190" width="570" height="570" as="geometry" />
        </mxCell>
        <mxCell id="lBbLSLFAb5su9wy5Ds7A-6" value="" style="group" vertex="1" connectable="0" parent="1">
          <mxGeometry x="334" y="540" width="160" height="160" as="geometry" />
        </mxCell>
        <mxCell id="lBbLSLFAb5su9wy5Ds7A-4" value="" style="ellipse;whiteSpace=wrap;html=1;aspect=fixed;" vertex="1" parent="lBbLSLFAb5su9wy5Ds7A-6">
          <mxGeometry width="160" height="160" as="geometry" />
        </mxCell>
        <mxCell id="lBbLSLFAb5su9wy5Ds7A-5" value="Промисловий вузол" style="text;html=1;strokeColor=none;fillColor=none;align=center;verticalAlign=middle;whiteSpace=wrap;rounded=0;" vertex="1" parent="lBbLSLFAb5su9wy5Ds7A-6">
          <mxGeometry x="50" y="65" width="60" height="30" as="geometry" />
        </mxCell>
        <mxCell id="lBbLSLFAb5su9wy5Ds7A-7" value="" style="group" vertex="1" connectable="0" parent="1">
          <mxGeometry x="190" y="370" width="160" height="160" as="geometry" />
        </mxCell>
        <mxCell id="lBbLSLFAb5su9wy5Ds7A-8" value="" style="ellipse;whiteSpace=wrap;html=1;aspect=fixed;" vertex="1" parent="lBbLSLFAb5su9wy5Ds7A-7">
          <mxGeometry width="130" height="130" as="geometry" />
        </mxCell>
        <mxCell id="lBbLSLFAb5su9wy5Ds7A-9" value="Промисловий центр&lt;br&gt;" style="text;html=1;strokeColor=none;fillColor=none;align=center;verticalAlign=middle;whiteSpace=wrap;rounded=0;" vertex="1" parent="lBbLSLFAb5su9wy5Ds7A-7">
          <mxGeometry x="35" y="50" width="60" height="30" as="geometry" />
        </mxCell>
        <mxCell id="lBbLSLFAb5su9wy5Ds7A-10" value="" style="group" vertex="1" connectable="0" parent="1">
          <mxGeometry x="400" y="290" width="160" height="160" as="geometry" />
        </mxCell>
        <mxCell id="lBbLSLFAb5su9wy5Ds7A-11" value="" style="ellipse;whiteSpace=wrap;html=1;aspect=fixed;" vertex="1" parent="lBbLSLFAb5su9wy5Ds7A-10">
          <mxGeometry width="90" height="90" as="geometry" />
        </mxCell>
        <mxCell id="lBbLSLFAb5su9wy5Ds7A-12" value="Промисловий пункт" style="text;html=1;strokeColor=none;fillColor=none;align=center;verticalAlign=middle;whiteSpace=wrap;rounded=0;" vertex="1" parent="lBbLSLFAb5su9wy5Ds7A-10">
          <mxGeometry x="15" y="30" width="60" height="30" as="geometry" />
        </mxCell>
        <mxCell id="lBbLSLFAb5su9wy5Ds7A-13" value="Промисловий район" style="text;html=1;strokeColor=none;fillColor=none;align=center;verticalAlign=middle;whiteSpace=wrap;rounded=0;fontSize=20;" vertex="1" parent="1">
          <mxGeometry x="530" y="460" width="60" height="30" as="geometry" />
        </mxCell>
      </root>
    </mxGraphModel>
  </diagram>
</mxfile>
